<?xml version="1.0" encoding="utf-8"?>
<!-- Generator: Adobe Illustrator 17.0.0, SVG Export Plug-In . SVG Version: 6.00 Build 0)  -->
<!DOCTYPE svg PUBLIC "-//W3C//DTD SVG 1.1//EN" "http://www.w3.org/Graphics/SVG/1.1/DTD/svg11.dtd">
<svg version="1.1" id="Logos" xmlns="http://www.w3.org/2000/svg" xmlns:xlink="http://www.w3.org/1999/xlink" x="0px" y="0px"
	 width="503.625px" height="185.983px" viewBox="0 0 503.625 185.983" enable-background="new 0 0 503.625 185.983"
	 xml:space="preserve">
<path id="FAU_x5F_Logo_00000101795252881803910900000002084273233305732543_" d="M493.882,0v112.053
	c0,26.075-11.634,48.475-38.78,65.657l-0.219-0.287c17.838-14.147,29.256-32.317,29.256-55.789V0h-9.744v121.472
	c0,34.979-28.356,61.223-63.335,61.223s-63.334-26.245-63.334-61.223V8.181l-9.744,9.744v103.71
	c0,40.36,32.718,70.642,73.078,70.642c0.934,0,9.744,0,9.744,0c39.743,0,82.822-29.35,82.822-80.08c0-0.048,0-112.197,0-112.197
	H493.882z M414.264,172.952c29.581,0,50.359-21.908,50.386-51.48h0.001V8.181l-9.744,9.744v94.129
	c0,18.835-15.269,31.667-34.103,31.667c-20.419,0-34.103-10.177-34.103-31.667L386.7,0h-9.743v112.053
	c0,27.006,17.824,41.411,43.847,41.411c9.902,0,21.921-4.892,30.085-13.503l0.219,0.287c-7.655,14.195-18.6,22.96-36.844,22.96
	c-26.221,0-47.051-18.758-47.051-46.445l0-116.763h-9.744l0.005,116.844C357.474,149.966,382.839,172.952,414.264,172.952z
	 M0,17.924l9.744-9.744v176.951H0V17.924z M29.231,9.744h116.925V0H19.487v116.925h103.892v-9.744H29.231V9.744z M138.05,87.694
	H48.719V48.719h79.588l9.744-9.744H48.719v-9.744h97.438v-9.744H38.975v77.95h89.46L138.05,87.694z M19.487,185.132h9.744v-48.719
	h9.744v40.538l9.744-9.744v-30.794h74.66v-9.744H19.487V185.132z M194.539,126.669l-24.64,58.463l9.746-0.001l-0.001,0.001h0.001
	l12.319-29.231h82.554l12.308,29.231h9.744l-16.411-38.975H196.07l4.106-9.744h85.624l20.513,48.719h9.744l-24.616-58.463H194.539z
	 M208.876,0l-71.611,169.859l6.202,8.42L218.62,0H208.876z M247.851,0l75.058,178.278l6.187-8.42L257.595,0H247.851z
	 M188.882,116.925l-28.819,68.206h-9.744l73.171-173.563l40.258,95.612h9.744L228.364,0h9.744l49.232,116.925H188.882z
	 M233.26,57.911l-20.764,49.27h41.51L233.26,57.911z M192.984,107.181h9.768l25.638-60.836l-4.879-11.587L192.984,107.181z"/>
</svg>
