<?xml version="1.0" encoding="UTF-8" standalone="no"?>
<!-- Generator: Adobe Illustrator 17.0.0, SVG Export Plug-In . SVG Version: 6.00 Build 0)  -->

<svg
   version="1.1"
   id="Logos"
   x="0px"
   y="0px"
   width="607.62402"
   height="262.27701"
   viewBox="0 0 607.62402 262.27702"
   enable-background="new 0 0 558 282.568"
   xml:space="preserve"
   sodipodi:docname="FAU_noborder.svg"
   inkscape:version="1.4.2 (ebf0e94, 2025-05-08)"
   xmlns:inkscape="http://www.inkscape.org/namespaces/inkscape"
   xmlns:sodipodi="http://sodipodi.sourceforge.net/DTD/sodipodi-0.dtd"
   xmlns="http://www.w3.org/2000/svg"
   xmlns:svg="http://www.w3.org/2000/svg"><defs
   id="defs1" /><sodipodi:namedview
   id="namedview1"
   pagecolor="#ffffff"
   bordercolor="#000000"
   borderopacity="0.25"
   inkscape:showpageshadow="2"
   inkscape:pageopacity="0.0"
   inkscape:pagecheckerboard="0"
   inkscape:deskcolor="#d1d1d1"
   inkscape:zoom="0.65809786"
   inkscape:cx="-57.742172"
   inkscape:cy="266.67766"
   inkscape:current-layer="Logos" />
<path
   id="FAU_x5F_Logo_00000054986581416837337540000006401078742208127884_"
   fill="#04316a"
   d="m 50.144518,27.043185 9.744,-9.744 V 194.24919 h -9.744 z m 29.231,-8.182 H 196.30052 V 9.1171847 H 69.631518 V 126.04219 H 177.25352 v -9.744 H 79.375518 Z M 191.92452,96.811191 H 98.863517 V 57.837185 h 79.587003 l 9.744,-9.744 H 98.863517 v -9.744 h 97.437003 v -9.744 H 89.119518 V 106.55519 H 182.30952 Z M 69.631518,194.24919 h 9.744 v -48.719 h 9.744 v 40.538 l 9.743999,-9.744 v -30.794 h 78.391003 v -9.744 H 69.631518 Z M 544.02452,9.1181847 V 121.17119 c 0,26.074 -11.633,48.476 -38.78,65.656 l -0.219,-0.286 c 17.837,-14.146 29.256,-32.316 29.256,-55.789 V 9.1181847 h -9.744 V 130.58919 c 0,34.979 -28.356,61.224 -63.335,61.224 -34.979,0 -63.334,-26.245 -63.334,-61.224 V 17.298185 l -9.744,9.744 V 130.75119 c 0,40.36 32.718,70.643 73.078,70.643 0.934,0 9.744,0 9.744,0 39.743,0 82.822,-29.351 82.822,-80.08 0,-0.048 0,-112.1960053 0,-112.1960053 z m -82.822,172.9510053 c 29.581,0 53.563,-21.908 53.59,-51.48 v 0 -113.291005 l -9.744,9.744 v 94.128005 c 0,18.835 -15.269,31.667 -34.103,31.667 -18.834,0 -34.103,-12.832 -34.103,-31.667 V 9.1171847 h -9.744 V 121.17019 c 0,24.216 19.631,41.411 43.847,41.411 9.902,0 21.921,-4.893 30.085,-13.503 l 0.219,0.286 c -7.655,14.195 -21.804,22.96 -40.048,22.96 -24.067,0 -43.602,-17.423 -43.841,-41.41 h -0.005 V 9.1181847 h -9.744 V 130.91519 h 0.005 c 0.203,29.406 24.114,51.154 53.586,51.154 z m -216.519,-46.283 -24.64,58.463 9.746,-0.001 -0.001,0.001 h 0.001 l 12.319,-29.231 h 82.554 l 12.308,29.231 h 9.744 l -16.411,-38.975 h -84.089 l 4.106,-9.744 h 85.624 l 20.513,48.719 h 9.744 l -24.616,-58.463 z m 14.337,-126.6680053 -71.61,169.8580053 6.203,8.419 75.151,-178.2770053 z m 38.975,0 75.058,178.2770053 6.187,-8.419 -71.502,-169.8580053 z m -58.97,116.9240053 -28.818,68.206 h -9.744 l 73.171,-173.562005 40.258,95.612005 h 9.744 L 278.50752,9.1181847 h 9.744 l 49.231,116.9250053 h -98.457 z m 44.378,-59.013005 -20.764,49.270005 h 41.509 z m -40.276,49.269005 h 9.768 l 25.638,-60.835005 -4.879,-11.588 z" />
</svg>
