<?xml version="1.0" encoding="utf-8"?>
<!-- Generator: Adobe Illustrator 17.0.0, SVG Export Plug-In . SVG Version: 6.00 Build 0)  -->
<!DOCTYPE svg PUBLIC "-//W3C//DTD SVG 1.1//EN" "http://www.w3.org/Graphics/SVG/1.1/DTD/svg11.dtd">
<svg version="1.1" id="Layer_1" xmlns="http://www.w3.org/2000/svg" xmlns:xlink="http://www.w3.org/1999/xlink" x="0px" y="0px"
	 width="407.333px" height="187.333px" viewBox="0 0 407.333 187.333" enable-background="new 0 0 407.333 187.333"
	 xml:space="preserve">
<g>
	<path fill="#1F3664" d="M78.086,84.751L61.962,68.569v66.808h-8.688V68.569L37.055,84.751l-6.54-7.327l27.103-27.656l27.103,27.656
		L78.086,84.751z"/>
</g>
<path id="FAU_x5F_Logo_1_" fill="#1F3664" d="M128.264,53.234l4.97-4.97v90.259h-4.97V53.234z M143.174,49.061h59.641v-4.97h-64.611
	v59.641H193.1v-4.97h-49.926V49.061z M200.583,88.822h-47.469v-19.88h40.596l4.97-4.97h-45.566v-4.97h49.701v-4.97h-54.671v39.761
	h47.534L200.583,88.822z M138.204,138.522h4.97v-24.85h4.97v20.678l4.97-4.97v-15.707H193.1v-4.97h-54.896V138.522z M380.182,44.091
	v57.156c0,13.3-5.934,24.726-19.781,33.49l-0.112-0.146c9.098-7.216,14.923-16.484,14.923-28.457V44.091h-4.97v61.96
	c0,17.842-14.464,31.229-32.306,31.229c-17.842,0-32.305-13.387-32.305-31.229V48.264l-4.97,4.97v52.9
	c0,20.587,16.689,36.033,37.275,36.033c0.476,0,4.97,0,4.97,0c20.272,0,42.246-14.971,42.246-40.847c0-0.024,0-57.229,0-57.229
	H380.182z M337.936,132.31c15.088,0,27.321-11.175,27.335-26.259h0V48.264l-4.97,4.97v48.013c0,9.607-7.788,16.153-17.395,16.153
	c-9.607,0-17.395-6.545-17.395-16.153l0-57.156h-4.97v57.156c0,12.352,10.014,21.123,22.366,21.123
	c5.051,0,11.182-2.496,15.346-6.888l0.112,0.146c-3.905,7.241-11.122,11.711-20.428,11.711c-12.276,0-22.24-8.887-22.362-21.122
	h-0.003V44.091h-4.97v62.126h0.003C310.706,121.217,322.903,132.31,337.936,132.31z M227.494,108.702l-12.568,29.821l4.971-0.001
	l-0.001,0.001h0.001l6.284-14.91h42.109l6.278,14.91h4.97l-8.371-19.88h-42.892l2.095-4.97h43.675l10.463,24.85h4.97l-12.556-29.821
	H227.494z M234.807,44.091l-36.527,86.641l3.164,4.294l38.333-90.935H234.807z M254.688,44.091l38.285,90.935l3.156-4.294
	l-36.471-86.641H254.688z M224.609,103.732l-14.7,34.79h-4.97l37.323-88.53l20.535,48.77h4.97l-23.019-54.671h4.97l25.112,59.641
	H224.609z M247.245,73.63l-10.591,25.131h21.173L247.245,73.63z M226.701,98.762h4.983l13.077-31.031l-2.489-5.911L226.701,98.762z"
	/>
</svg>
