<?xml version="1.0" encoding="utf-8"?>
<!-- Generator: Adobe Illustrator 17.0.0, SVG Export Plug-In . SVG Version: 6.00 Build 0)  -->
<!DOCTYPE svg PUBLIC "-//W3C//DTD SVG 1.1//EN" "http://www.w3.org/Graphics/SVG/1.1/DTD/svg11.dtd">
<svg version="1.1" id="Layer_1" xmlns="http://www.w3.org/2000/svg" xmlns:xlink="http://www.w3.org/1999/xlink" x="0px" y="0px"
	 width="395px" height="137px" viewBox="0 0 395 137" enable-background="new 0 0 395 137" xml:space="preserve">
<g>
	<path fill="#1D3764" d="M58.905,64.66L42.78,48.478v66.808h-8.688V48.478L17.874,64.66l-6.54-7.327l27.103-27.656L65.54,57.333
		L58.905,64.66z"/>
</g>
<path id="FAU_x5F_Logo_00000054986581416837337540000006401078742208127884_" fill="#1F3664" d="M108.083,33.143l4.97-4.97v90.259
	h-4.97V33.143z M122.993,28.97h59.641V24h-64.611v59.641h54.896v-4.97h-49.926V28.97z M180.402,68.73h-47.469V48.85h40.596
	l4.97-4.97h-45.566v-4.97h49.701v-4.97h-54.671v39.761h47.534L180.402,68.73z M118.023,118.431h4.97v-24.85h4.97v20.678l4.97-4.97
	V93.581h39.986v-4.97h-54.896V118.431z M360,24v57.156c0,13.3-5.934,24.726-19.781,33.49l-0.112-0.146
	c9.098-7.216,14.923-16.484,14.923-28.457V24h-4.97v61.96c0,17.842-14.464,31.229-32.306,31.229
	c-17.842,0-32.305-13.387-32.305-31.229V28.173l-4.97,4.97v52.9c0,20.587,16.689,36.033,37.275,36.033c0.476,0,4.97,0,4.97,0
	c20.272,0,42.246-14.971,42.246-40.847c0-0.024,0-57.229,0-57.229H360z M317.755,112.219c15.088,0,27.321-11.175,27.335-26.259h0
	V28.173l-4.97,4.97v48.013c0,9.607-7.788,16.153-17.395,16.153c-9.607,0-17.395-6.545-17.395-16.153l0-57.156h-4.97v57.156
	c0,12.352,10.014,21.123,22.366,21.123c5.051,0,11.182-2.496,15.346-6.888l0.112,0.146c-3.905,7.241-11.122,11.711-20.428,11.711
	c-12.276,0-22.241-8.887-22.362-21.122h-0.003V24h-4.97v62.126h0.003C290.525,101.125,302.722,112.219,317.755,112.219z
	 M207.313,88.611l-12.568,29.821l4.971-0.001l-0.001,0.001h0.001l6.284-14.91h42.109l6.278,14.91h4.97l-8.371-19.88h-42.892
	l2.095-4.97h43.675l10.463,24.85h4.97l-12.556-29.821H207.313z M214.626,24l-36.527,86.641l3.164,4.294L219.596,24H214.626z
	 M234.506,24l38.285,90.935l3.156-4.294L239.476,24H234.506z M204.427,83.641l-14.7,34.79h-4.97l37.323-88.53l20.535,48.77h4.97
	L224.566,24h4.97l25.112,59.641H204.427z M227.064,53.539l-10.591,25.131h21.173L227.064,53.539z M206.52,78.671h4.983L224.58,47.64
	l-2.489-5.911L206.52,78.671z"/>
</svg>
