<?xml version="1.0" encoding="utf-8"?>
<!-- Generator: Adobe Illustrator 17.0.0, SVG Export Plug-In . SVG Version: 6.00 Build 0)  -->
<!DOCTYPE svg PUBLIC "-//W3C//DTD SVG 1.1//EN" "http://www.w3.org/Graphics/SVG/1.1/DTD/svg11.dtd">
<svg version="1.1" id="Layer_1" xmlns="http://www.w3.org/2000/svg" xmlns:xlink="http://www.w3.org/1999/xlink" x="0px" y="0px"
	 width="849px" height="407px" viewBox="0 0 849 407" enable-background="new 0 0 849 407" xml:space="preserve">
<path fill="#1D1D1B" d="M518.6,27.317V139.37c0,26.075-11.634,48.475-38.781,65.657l-0.219-0.287
	c17.838-14.147,29.256-32.317,29.256-55.789V27.317h-9.744v121.472c0,34.978-28.356,61.223-63.335,61.223
	c-34.978,0-63.334-26.245-63.334-61.223V35.497l-9.744,9.744v103.71c0,40.36,32.719,70.642,73.078,70.642h9.744
	c39.743,0,82.822-29.35,82.822-80.08V27.317H518.6z M438.982,200.268c29.58,0,50.359-21.907,50.386-51.479V35.497l-9.744,9.744
	v94.129c0,18.834-15.268,31.667-34.103,31.667c-20.419,0-34.103-10.177-34.103-31.667V27.317h-9.744V139.37
	c0,27.006,17.824,41.411,43.847,41.411c9.902,0,21.922-4.892,30.085-13.503l0.22,0.286c-7.655,14.196-18.6,22.961-36.844,22.961
	c-26.221,0-47.051-18.759-47.051-46.446V27.317h-9.744l0.005,116.843C382.192,177.282,407.557,200.268,438.982,200.268
	 M24.718,45.241l9.744-9.744v176.951h-9.744V45.241z M53.949,37.06h116.926v-9.743H44.206v116.925h103.891v-9.744H53.949V37.06z
	 M162.768,115.01H73.437V76.035h79.588l9.743-9.743H73.437v-9.744h97.438v-9.744H63.693v77.95h89.46L162.768,115.01z
	 M44.206,212.448h9.743v-48.719h9.744v40.538l9.744-9.744v-30.794h74.66v-9.744H44.206V212.448z M219.258,153.985l-24.64,58.463
	l9.745-0.001l-0.001,0.001h0.001l12.319-29.231h82.555l12.308,29.231h9.743l-16.41-38.975h-84.089l4.106-9.744h85.624l20.513,48.719
	h9.744l-24.616-58.463H219.258z M233.595,27.317l-71.611,169.858l6.202,8.42l75.152-178.278H233.595z M272.57,27.317l75.058,178.278
	l6.187-8.42L282.313,27.317H272.57z M213.6,144.242l-28.818,68.206h-9.744l73.171-173.563l40.258,95.613h9.744L253.082,27.317h9.744
	l49.231,116.925H213.6z M257.978,85.228l-20.764,49.27h41.509L257.978,85.228z M217.702,134.498h9.768l25.638-60.836l-4.878-11.587
	L217.702,134.498z"/>
<polygon fill="#1D1D1B" points="49.025,244.84 31.593,244.84 31.593,254.464 44.627,254.464 44.627,260.733 31.593,260.733 
	31.593,277.231 24.718,277.231 24.718,238.516 49.025,238.516 "/>
<path fill="#1D1D1B" d="M69.7,249.129l-1.045,6.709c-0.99-0.55-2.2-0.88-3.63-0.88c-4.509,0-5.72,3.63-5.72,7.919v14.354h-6.543
	v-27.992h6.434v3.52h0.109c1.486-2.64,4.125-4.234,7.315-4.234C67.555,248.525,68.71,248.69,69.7,249.129"/>
<path fill="#1D1D1B" d="M82.653,240.77c0,2.31-1.87,3.959-4.179,3.959c-2.255,0-4.125-1.649-4.125-3.959
	c0-2.254,1.87-3.959,4.125-3.959C80.783,236.811,82.653,238.516,82.653,240.77 M81.773,277.23h-6.544V249.24h6.544V277.23z"/>
<path fill="#1D1D1B" d="M102.523,277.891c-8.303,0-13.858-5.885-13.858-14.738c0-8.689,5.334-14.628,13.144-14.628
	c7.534,0,12.428,5.609,12.428,14.243c0,0.934-0.055,1.925-0.11,2.694H95.319c0.715,4.345,3.3,6.82,7.259,6.82
	c2.585,0,4.675-0.991,6.874-3.3l4.07,4.29C110.332,276.406,106.758,277.891,102.523,277.891 M95.21,260.678h12.703
	c-0.275-4.289-2.53-6.764-6.215-6.764C98.069,253.914,95.759,256.333,95.21,260.678"/>
<path fill="#1D1D1B" d="M119.927,263.153c0-9.019,4.564-14.628,11.384-14.628c3.519,0,6.269,1.484,8.139,3.794h0.11v-14.353
	l6.544-1.649v40.914h-6.379v-3.3h-0.111c-2.034,2.475-4.949,3.96-8.413,3.96C124.547,277.891,119.927,272.227,119.927,263.153
	 M126.417,263.153c0,5.719,2.364,8.964,6.488,8.964c2.531,0,4.619-1.21,6.655-3.685v-10.228c-1.87-2.53-4.014-3.739-6.655-3.739
	C128.671,254.465,126.417,257.544,126.417,263.153"/>
<path fill="#1D1D1B" d="M171.564,249.129l-1.045,6.709c-0.989-0.55-2.199-0.88-3.629-0.88c-4.51,0-5.72,3.63-5.72,7.919v14.354
	h-6.543v-27.992h6.433v3.52h0.11c1.486-2.64,4.125-4.234,7.315-4.234C169.419,248.525,170.575,248.69,171.564,249.129"/>
<path fill="#1D1D1B" d="M184.517,240.77c0,2.31-1.869,3.959-4.18,3.959c-2.254,0-4.124-1.649-4.124-3.959
	c0-2.254,1.87-3.959,4.124-3.959C182.648,236.811,184.517,238.516,184.517,240.77 M183.637,277.23h-6.544V249.24h6.544V277.23z"/>
<path fill="#1D1D1B" d="M214.083,273.381c-2.805,3.08-5.994,4.51-10.009,4.51c-8.029,0-13.418-5.775-13.418-14.573
	c0-8.799,5.445-14.793,13.529-14.793c4.178,0,7.643,1.649,10.063,4.784l-4.51,4.289c-1.649-2.145-3.409-3.079-5.609-3.079
	c-4.124,0-6.929,3.409-6.929,8.688c0,5.225,2.805,8.744,6.874,8.744c2.2,0,3.96-0.99,5.775-3.08L214.083,273.381z"/>
<path fill="#1D1D1B" d="M243.947,277.231h-6.544v-16.003c0-4.124-1.265-6.819-5.169-6.819c-4.51,0-5.829,3.575-5.829,6.764v16.058
	h-6.544v-39.265l6.544-1.649v16.277h0.11c1.594-2.474,4.509-4.069,8.194-4.069c6.489,0,9.238,4.839,9.238,11.328V277.231z"/>
<rect x="251.457" y="256.939" fill="#1D1D1B" width="13.748" height="6.214"/>
<path fill="#1D1D1B" d="M282.981,238.516h7.258l14.409,38.715h-7.534l-2.804-8.249h-15.619l-2.804,8.249h-7.314L282.981,238.516z
	 M280.836,262.823h11.329l-5.609-16.442h-0.111L280.836,262.823z"/>
<polygon fill="#1D1D1B" points="316.933,277.231 310.389,277.231 310.389,237.856 316.933,236.372 "/>
<path fill="#1D1D1B" d="M337.887,277.891c-8.303,0-13.858-5.885-13.858-14.738c0-8.689,5.334-14.628,13.144-14.628
	c7.534,0,12.428,5.609,12.428,14.243c0,0.934-0.055,1.925-0.11,2.694h-18.808c0.715,4.345,3.3,6.82,7.259,6.82
	c2.585,0,4.675-0.991,6.874-3.3l4.07,4.29C345.696,276.406,342.122,277.891,337.887,277.891 M330.574,260.678h12.703
	c-0.275-4.289-2.53-6.764-6.215-6.764C333.433,253.914,331.123,256.333,330.574,260.678"/>
<polygon fill="#1D1D1B" points="379.856,277.231 372.377,277.231 366.382,267.552 366.273,267.552 360.444,277.231 353.075,277.231 
	362.643,262.713 353.79,249.24 361.159,249.24 366.438,257.819 366.548,257.819 371.772,249.24 379.031,249.24 370.232,262.603 "/>
<path fill="#1D1D1B" d="M395.324,259.853c1.814,0,3.464,0.111,5.279,0.606v-0.99c0-3.575-2.09-5.445-6.159-5.445
	c-2.255,0-4.784,0.55-7.095,1.595l-1.43-5.499c2.585-0.99,5.994-1.595,9.184-1.595c7.864,0,11.934,3.685,11.934,10.833v17.873
	h-6.214v-2.969h-0.111c-2.42,2.474-4.949,3.63-8.193,3.63c-5.609,0-9.239-3.465-9.239-8.91
	C383.28,263.043,387.514,259.853,395.324,259.853 M394.224,272.997c2.364,0,4.564-1.155,6.379-3.354v-4.895
	c-1.54-0.385-3.135-0.55-4.565-0.55c-4.125,0-6.489,1.65-6.489,4.619C389.549,271.402,391.364,272.997,394.224,272.997"/>
<path fill="#1D1D1B" d="M439.42,277.231h-6.544v-16.003c0-4.069-1.21-6.819-5.17-6.819c-4.563,0-5.828,3.74-5.828,6.764v16.058
	h-6.545V249.24h6.489v3.354h0.111c1.649-2.474,4.619-4.069,8.249-4.069c6.379,0,9.238,4.674,9.238,11.328V277.231z"/>
<path fill="#1D1D1B" d="M446.343,263.153c0-9.019,4.563-14.628,11.383-14.628c3.519,0,6.269,1.484,8.138,3.794h0.111v-14.353
	l6.543-1.649v40.914h-6.378v-3.3h-0.111c-2.034,2.475-4.949,3.96-8.413,3.96C450.962,277.891,446.343,272.227,446.343,263.153
	 M452.831,263.153c0,5.719,2.365,8.964,6.489,8.964c2.531,0,4.62-1.21,6.655-3.685v-10.228c-1.871-2.53-4.015-3.739-6.655-3.739
	C455.086,254.465,452.831,257.544,452.831,263.153"/>
<path fill="#1D1D1B" d="M493.48,277.891c-8.303,0-13.858-5.885-13.858-14.738c0-8.689,5.334-14.628,13.144-14.628
	c7.534,0,12.428,5.609,12.428,14.243c0,0.934-0.055,1.925-0.11,2.694h-18.808c0.715,4.345,3.3,6.82,7.259,6.82
	c2.585,0,4.675-0.991,6.874-3.3l4.07,4.29C501.289,276.406,497.715,277.891,493.48,277.891 M486.167,260.678h12.703
	c-0.275-4.289-2.53-6.764-6.215-6.764C489.026,253.914,486.716,256.333,486.167,260.678"/>
<path fill="#1D1D1B" d="M529.28,249.129l-1.045,6.709c-0.99-0.55-2.2-0.88-3.63-0.88c-4.51,0-5.719,3.63-5.719,7.919v14.354h-6.544
	v-27.992h6.434v3.52h0.11c1.485-2.64,4.124-4.234,7.314-4.234C527.134,248.525,528.29,248.69,529.28,249.129"/>
<rect x="533.351" y="256.939" fill="#1D1D1B" width="13.748" height="6.214"/>
<path fill="#1D1D1B" d="M585.696,261.888c0,9.349-4.784,16.003-15.179,16.003c-10.338,0-15.067-6.6-15.067-16.003v-23.372h7.039
	v22.987c0,5.829,2.529,9.788,8.249,9.788c5.719,0,7.974-3.904,7.974-9.788v-22.987h6.984V261.888z"/>
<path fill="#1D1D1B" d="M618.47,277.231h-6.544v-16.003c0-4.069-1.21-6.819-5.169-6.819c-4.564,0-5.829,3.74-5.829,6.764v16.058
	h-6.544V249.24h6.488v3.354h0.111c1.649-2.474,4.619-4.069,8.249-4.069c6.379,0,9.238,4.674,9.238,11.328V277.231z"/>
<path fill="#1D1D1B" d="M634.148,240.77c0,2.31-1.871,3.959-4.18,3.959c-2.255,0-4.125-1.649-4.125-3.959
	c0-2.254,1.87-3.959,4.125-3.959C632.277,236.811,634.148,238.516,634.148,240.77 M633.268,277.23h-6.544V249.24h6.544V277.23z"/>
<polygon fill="#1D1D1B" points="665.985,249.24 655.811,277.231 648.992,277.231 638.818,249.24 646.023,249.24 652.457,269.588 
	652.567,269.588 659.001,249.24 "/>
<path fill="#1D1D1B" d="M682.888,277.891c-8.304,0-13.858-5.885-13.858-14.738c0-8.689,5.334-14.628,13.144-14.628
	c7.533,0,12.427,5.609,12.427,14.243c0,0.934-0.054,1.925-0.109,2.694h-18.809c0.715,4.345,3.3,6.82,7.26,6.82
	c2.584,0,4.674-0.991,6.874-3.3l4.069,4.29C690.697,276.406,687.123,277.891,682.888,277.891 M675.574,260.678h12.703
	c-0.275-4.289-2.529-6.764-6.214-6.764C678.433,253.914,676.124,256.333,675.574,260.678"/>
<path fill="#1D1D1B" d="M718.687,249.129l-1.045,6.709c-0.99-0.55-2.2-0.88-3.63-0.88c-4.509,0-5.72,3.63-5.72,7.919v14.354h-6.543
	v-27.992h6.434v3.52h0.109c1.486-2.64,4.125-4.234,7.315-4.234C716.542,248.525,717.697,248.69,718.687,249.129"/>
<path fill="#1D1D1B" d="M724.875,269.312c2.749,2.09,5.444,3.135,7.919,3.135c2.42,0,4.125-1.1,4.125-2.805
	c0-4.784-14.023-3.08-14.023-12.429c0-5.169,4.289-8.688,10.558-8.688c3.355,0,6.709,0.989,9.679,2.914l-3.08,5.114
	c-2.419-1.649-4.565-2.474-6.709-2.474c-2.419,0-4.015,1.045-4.015,2.585c0,4.564,13.969,2.969,13.969,12.373
	c0,5.279-4.345,8.854-10.779,8.854c-3.74,0-7.534-1.155-10.779-3.41L724.875,269.312z"/>
<path fill="#1D1D1B" d="M757.72,240.77c0,2.31-1.87,3.959-4.18,3.959c-2.254,0-4.124-1.649-4.124-3.959
	c0-2.254,1.87-3.959,4.124-3.959C755.85,236.811,757.72,238.516,757.72,240.77 M756.84,277.23h-6.544V249.24h6.544V277.23z"/>
<path fill="#1D1D1B" d="M779.824,271.237v5.609c-1.43,0.661-3.574,1.045-5.5,1.045c-4.949,0-7.644-2.75-7.644-7.864v-15.343h-4.29
	v-5.444h4.236v-7.644l6.544-1.43v9.074h6.654v5.444h-6.654v13.803c0,2.585,0.88,3.685,3.024,3.685
	C777.404,272.172,778.724,271.787,779.824,271.237"/>
<path fill="#1D1D1B" d="M796.977,259.853c1.815,0,3.465,0.11,5.28,0.605v-0.99c0-3.574-2.09-5.444-6.159-5.444
	c-2.255,0-4.785,0.55-7.095,1.595l-1.43-5.499c2.585-0.991,5.994-1.595,9.185-1.595c7.864,0,11.932,3.684,11.932,10.833v17.873
	h-6.213v-2.97h-0.111c-2.419,2.475-4.949,3.63-8.193,3.63c-5.61,0-9.238-3.465-9.238-8.909
	C784.935,263.042,789.169,259.853,796.977,259.853 M791.643,244.895c-2.089,0-3.904-1.76-3.904-3.794c0-2.035,1.815-3.85,3.904-3.85
	c2.09,0,3.905,1.815,3.905,3.85C795.548,243.135,793.733,244.895,791.643,244.895 M795.878,272.997c2.364,0,4.564-1.156,6.379-3.355
	v-4.894c-1.54-0.385-3.135-0.55-4.565-0.55c-4.125,0-6.489,1.649-6.489,4.619C791.203,271.402,793.018,272.997,795.878,272.997
	 M803.081,244.895c-2.089,0-3.904-1.76-3.904-3.794c0-2.035,1.815-3.85,3.904-3.85c2.09,0,3.905,1.815,3.905,3.85
	C806.986,243.135,805.171,244.895,803.081,244.895"/>
<path fill="#1D1D1B" d="M831.209,271.237v5.609c-1.43,0.661-3.575,1.045-5.499,1.045c-4.949,0-7.645-2.75-7.645-7.864v-15.343
	h-4.289v-5.444h4.235v-7.644l6.544-1.43v9.074h6.654v5.444h-6.654v13.803c0,2.585,0.88,3.685,3.024,3.685
	C828.789,272.172,830.109,271.787,831.209,271.237"/>
<polygon fill="#1D1D1B" points="49.025,305.34 31.593,305.34 31.593,314.964 44.627,314.964 44.627,321.233 31.593,321.233 
	31.593,337.731 24.718,337.731 24.718,299.016 49.025,299.016 "/>
<path fill="#1D1D1B" d="M62.304,320.353c1.814,0,3.463,0.111,5.279,0.606v-0.99c0-3.575-2.09-5.445-6.16-5.445
	c-2.254,0-4.784,0.55-7.094,1.595l-1.43-5.499c2.585-0.99,5.994-1.595,9.184-1.595c7.864,0,11.933,3.685,11.933,10.833v17.873
	h-6.213v-2.969h-0.111c-2.42,2.474-4.949,3.63-8.193,3.63c-5.609,0-9.239-3.465-9.239-8.91
	C50.26,323.543,54.494,320.353,62.304,320.353 M61.203,333.497c2.364,0,4.564-1.155,6.38-3.354v-4.895
	c-1.54-0.385-3.135-0.55-4.565-0.55c-4.125,0-6.49,1.65-6.49,4.619C56.528,331.902,58.344,333.497,61.203,333.497"/>
<path fill="#1D1D1B" d="M104.273,333.881c-2.805,3.08-5.994,4.51-10.009,4.51c-8.029,0-13.418-5.775-13.418-14.573
	c0-8.799,5.445-14.793,13.529-14.793c4.178,0,7.643,1.649,10.063,4.784l-4.51,4.289c-1.649-2.145-3.409-3.079-5.609-3.079
	c-4.124,0-6.929,3.409-6.929,8.688c0,5.225,2.805,8.744,6.874,8.744c2.2,0,3.96-0.99,5.775-3.08L104.273,333.881z"/>
<path fill="#1D1D1B" d="M116.462,326.568c0,3.849,1.925,5.884,5.554,5.884c3.575,0,5.444-1.98,5.444-5.94V309.74h6.545v16.993
	c0,7.368-4.125,11.658-11.824,11.658c-7.644,0-12.264-4.29-12.264-11.603V309.74h6.545V326.568z"/>
<polygon fill="#1D1D1B" points="148.923,337.731 142.378,337.731 142.378,298.356 148.923,296.872 "/>
<path fill="#1D1D1B" d="M172.038,331.737v5.609c-1.431,0.661-3.575,1.045-5.5,1.045c-4.949,0-7.644-2.75-7.644-7.864v-15.343h-4.29
	v-5.444h4.235v-7.644l6.545-1.43v9.074h6.654v5.444h-6.654v13.803c0,2.585,0.879,3.685,3.024,3.685
	C169.618,332.672,170.937,332.287,172.038,331.737"/>
<polygon fill="#1D1D1B" points="204.04,309.74 189.742,348.565 182.647,348.565 186.937,337.016 176.544,309.74 183.748,309.74 
	190.457,330.088 190.567,330.088 197.001,309.74 "/>
<path fill="#1D1D1B" d="M224.393,323.707c0-8.798,5.444-14.682,13.583-14.682c8.084,0,13.363,5.774,13.363,14.682
	c0,8.799-5.224,14.684-13.363,14.684C229.892,338.391,224.393,332.562,224.393,323.707 M244.85,323.763
	c0-5.444-2.694-8.799-6.983-8.799c-4.345,0-6.985,3.355-6.985,8.689c0,5.444,2.695,8.853,7.039,8.853
	C242.21,332.506,244.85,329.152,244.85,323.763"/>
<path fill="#1D1D1B" d="M272.609,302.59c-0.879-0.385-1.924-0.55-2.859-0.55c-2.475,0-3.465,1.265-3.465,3.904v3.795h5.554v5.445
	h-5.499v22.547h-6.544v-22.547h-4.344v-5.445h4.344v-4.014c0-5.829,2.64-9.294,8.909-9.294c1.429,0,2.804,0.165,3.904,0.605V302.59z
	"/>
<path fill="#1D1D1B" d="M295.929,327.722c2.86,2.75,6.38,4.345,9.624,4.345c3.63,0,6.27-2.035,6.27-4.84
	c0-7.424-18.973-5.114-18.973-17.652c0-6.655,5.39-11.219,13.143-11.219c4.62,0,8.909,1.595,12.484,4.675l-4.345,5.334
	c-2.805-2.475-5.609-3.74-8.469-3.74c-3.41,0-5.884,1.815-5.884,4.345c0,6.983,18.972,4.674,18.972,17.707
	c0,6.984-5.388,11.714-13.363,11.714c-5.114,0-10.118-1.925-13.803-5.335L295.929,327.722z"/>
<path fill="#1D1D1B" d="M347.99,333.881c-2.805,3.08-5.994,4.51-10.008,4.51c-8.029,0-13.419-5.775-13.419-14.573
	c0-8.799,5.445-14.793,13.529-14.793c4.179,0,7.644,1.649,10.063,4.784l-4.509,4.289c-1.65-2.145-3.41-3.079-5.609-3.079
	c-4.125,0-6.93,3.409-6.93,8.688c0,5.225,2.805,8.744,6.875,8.744c2.199,0,3.959-0.99,5.774-3.08L347.99,333.881z"/>
<path fill="#1D1D1B" d="M361.24,301.271c0,2.31-1.87,3.959-4.179,3.959c-2.255,0-4.124-1.649-4.124-3.959
	c0-2.254,1.869-3.959,4.124-3.959C359.37,297.311,361.24,299.017,361.24,301.271 M360.36,337.73h-6.544V309.74h6.544V337.73z"/>
<path fill="#1D1D1B" d="M381.11,338.391c-8.303,0-13.857-5.885-13.857-14.738c0-8.689,5.334-14.628,13.143-14.628
	c7.534,0,12.428,5.609,12.428,14.243c0,0.934-0.054,1.925-0.11,2.694h-18.807c0.715,4.345,3.299,6.82,7.259,6.82
	c2.585,0,4.674-0.991,6.874-3.3l4.069,4.29C388.92,336.906,385.345,338.391,381.11,338.391 M373.797,321.178H386.5
	c-0.274-4.289-2.529-6.764-6.214-6.764C376.656,314.414,374.347,316.833,373.797,321.178"/>
<path fill="#1D1D1B" d="M424.059,337.731h-6.544v-16.003c0-4.069-1.21-6.819-5.17-6.819c-4.563,0-5.828,3.74-5.828,6.764v16.058
	h-6.545V309.74h6.489v3.354h0.111c1.649-2.474,4.619-4.069,8.249-4.069c6.379,0,9.238,4.674,9.238,11.328V337.731z"/>
<path fill="#1D1D1B" d="M454.342,333.881c-2.805,3.08-5.994,4.51-10.009,4.51c-8.029,0-13.418-5.775-13.418-14.573
	c0-8.799,5.444-14.793,13.528-14.793c4.179,0,7.644,1.649,10.064,4.784l-4.51,4.289c-1.649-2.145-3.409-3.079-5.609-3.079
	c-4.124,0-6.929,3.409-6.929,8.688c0,5.225,2.805,8.744,6.874,8.744c2.199,0,3.959-0.99,5.775-3.08L454.342,333.881z"/>
<path fill="#1D1D1B" d="M472.019,338.391c-8.303,0-13.858-5.885-13.858-14.738c0-8.689,5.334-14.628,13.143-14.628
	c7.535,0,12.428,5.609,12.428,14.243c0,0.934-0.054,1.925-0.11,2.694h-18.807c0.715,4.345,3.299,6.82,7.259,6.82
	c2.585,0,4.675-0.991,6.874-3.3l4.069,4.29C479.828,336.906,476.254,338.391,472.019,338.391 M464.705,321.178h12.703
	c-0.274-4.289-2.529-6.764-6.214-6.764C467.565,314.414,465.255,316.833,464.705,321.178"/>
<path fill="#1D1D1B" d="M491.37,329.812c2.75,2.09,5.444,3.135,7.919,3.135c2.419,0,4.124-1.1,4.124-2.805
	c0-4.784-14.023-3.08-14.023-12.429c0-5.169,4.29-8.688,10.558-8.688c3.356,0,6.709,0.989,9.68,2.914l-3.08,5.114
	c-2.42-1.649-4.565-2.474-6.709-2.474c-2.42,0-4.015,1.045-4.015,2.585c0,4.564,13.968,2.969,13.968,12.373
	c0,5.279-4.344,8.854-10.778,8.854c-3.74,0-7.535-1.155-10.779-3.41L491.37,329.812z"/>
</svg>
