<?xml version="1.0" encoding="utf-8"?>
<!-- Generator: Adobe Illustrator 17.0.0, SVG Export Plug-In . SVG Version: 6.00 Build 0)  -->
<!DOCTYPE svg PUBLIC "-//W3C//DTD SVG 1.1//EN" "http://www.w3.org/Graphics/SVG/1.1/DTD/svg11.dtd">
<svg version="1.1" xmlns="http://www.w3.org/2000/svg" xmlns:xlink="http://www.w3.org/1999/xlink" x="0px" y="0px" width="657px"
	 height="341px" viewBox="-19.625 367.585 657 341" enable-background="new -19.625 367.585 657 341" xml:space="preserve">
<g id="Layer_1">
</g>
<g id="Layer_2">
	<rect x="-19.625" y="367.585" fill="#04316A" width="657" height="341"/>
	<path fill="#FFFFFF" d="M27.814,551.982c2.98-8.439,7.493-15.576,16.294-19.015c13.718-5.361,28.797,1.32,33.974,15.029
		c5.084,13.463-1.672,28.317-15.227,33.484c-13.37,5.097-28.205-1.751-33.395-15.407c-0.522-1.374-1.096-2.729-1.646-4.093
		C27.814,558.648,27.814,555.315,27.814,551.982z"/>
	<path fill="#FFFFFF" d="M149.481,412c2.917,0,5.126,1.326,6.066,1.933c5.593,3.604,8.157,10.032,6.301,15.849
		c-2.027,6.354-7.499,10.455-13.719,10.284c-6.259-0.173-11.687-4.563-13.354-10.803c-1.579-5.908,1.286-12.309,7-15.61
		c0.994-0.575,3.206-1.653,5.039-1.653C149.481,412,146.814,412,149.481,412z"/>
	<path fill="#FFFFFF" d="M207.05,587.805c23.025-0.006,41.922,18.614,41.904,41.29c-0.019,23.665-18.449,42.573-41.703,42.786
		c-22.916,0.209-42.385-19.289-42.277-42.341C165.083,606.379,183.802,587.811,207.05,587.805z"/>
	<path fill="#FFFFFF" d="M106.585,651.696c-18.317,0.173-33.304-14.693-33.441-33.172c-0.136-18.283,14.815-33.455,33.118-33.608
		c18.137-0.152,33.431,15.032,33.532,33.29C139.895,636.544,125.043,651.522,106.585,651.696z"/>
	<path fill="#FFFFFF" d="M170.286,525.462c-3.266,0.626-5.877,1.045-8.447,1.644c-1.962,0.457-2.991-0.286-3.963-1.978
		c-3.216-5.597-8.33-7.352-14.449-6.447c-6.54,0.967-11.258,4.541-12.649,11.085c-1.833,8.622-2.439,17.327,4.77,24.221
		c5.636,5.39,17.651,5.137,23.013-0.287c2.106-2.131,0.801-4.7,1.028-7.234c-4.136-1.804-8.631,0.148-12.764-1.313
		c-0.806-2.86-0.501-5.655-0.21-8.849c8.059,0,16.075,0,24.587,0c0,7.131-0.001,14.082,0,21.033c0,1.264-0.58,2.194-1.565,2.959
		c-11.796,9.156-32.595,11.117-43.724-0.198c-9.375-9.533-10.964-27.685-3.555-39.455c6.711-10.66,21.204-15.155,34.545-10.581
		C164.014,512.499,168.466,517.394,170.286,525.462z"/>
	<path fill="#FFFFFF" d="M558.824,566.741c-3.994,0-7.125,0-11.18,0c0-5.329,0.005-10.571-0.002-15.813
		c-0.005-3.831-0.013-7.662-0.041-11.493c-0.023-3.064-0.839-5.761-4.27-6.411c-3.638-0.689-6.567,0.613-8.342,3.99
		c-1.203,2.288-1.216,4.803-1.212,7.314c0.014,7.294,0.005,14.588,0.005,22.063c-3.694,0.847-6.969,0.454-10.695,0.358
		c0-13.635,0-27.179,0-40.947c2.94-0.952,6.034-0.555,9.301-0.276c0.243,1.38,0.465,2.644,0.752,4.275
		c8.211-6.637,16.328-8.274,24.389,0.407c3.338-2.592,6.535-5.439,11.196-5.76c8.764-0.603,14.485,3.547,14.9,12.211
		c0.469,9.789,0.108,19.617,0.108,29.576c-3.578,1.199-6.975,0.592-10.633,0.445c-0.895-5.482-0.297-10.781-0.434-16.044
		c-0.095-3.662,0.019-7.33-0.07-10.992c-0.077-3.181-0.791-6.116-4.599-6.669c-3.765-0.547-6.441,1.156-8.018,4.55
		c-1.229,2.646-1.15,5.51-1.155,8.341C558.817,552.658,558.824,559.451,558.824,566.741z"/>
	<path fill="#FFFFFF" d="M60.906,510.422c-11.757,0.155-21.489-9.44-21.765-21.46c-0.279-12.115,9.889-22.561,21.949-22.55
		c11.947,0.011,21.949,10.005,22.007,21.99C83.156,500.799,73.627,510.255,60.906,510.422z"/>
	<path fill="#FFFFFF" d="M300.198,519.032c-9.611,0-17.868,0-26.343,0c-0.632-3.291-0.413-6.179-0.111-9.377
		c13.914,0,27.472,0,41.222,0c0.898,4.949,0.716,9.005-2.771,13.105c-9.244,10.871-17.988,22.167-27.745,34.306
		c8.041,0,15.073,0,22.106,0c1.498,0,2.996-0.002,4.494,0c5.214,0.009,7.431,3.362,5.515,8.258
		c-0.423,1.082-1.096,1.567-2.223,1.566c-14.606-0.005-29.212-0.003-44.067-0.003c-0.695-5.607-0.86-10.146,3.078-14.695
		C282.359,541.788,290.721,530.827,300.198,519.032z"/>
	<path fill="#FFFFFF" d="M266.094,545.976c0.002,12.789-9.001,22.041-21.336,21.924c-12.717-0.121-21.214-8.885-21.294-21.963
		c-0.076-12.425,8.808-21.509,21.152-21.628C257.249,524.188,266.092,533.109,266.094,545.976z M234.89,547.537
		c0.114,0.633,0.23,2.483,0.796,4.184c1.439,4.328,4.354,7.078,9.106,7.124c4.999,0.049,8.104-2.844,9.448-7.366
		c1.094-3.684,1.106-7.584-0.192-11.282c-1.518-4.324-4.613-6.976-9.294-6.927c-4.452,0.047-7.32,2.646-8.947,6.723
		C234.985,542.053,234.895,544.19,234.89,547.537z"/>
	<path fill="#FFFFFF" d="M358.449,549.153c-4.409,0-8.855,0-13.301,0c-4.295,0-8.59,0-13.032,0
		c-0.238,4.911,1.457,8.287,5.732,9.808c3.901,1.387,6.653-0.044,9.326-3.463c3.028-3.872,6.864,0.338,10.773-0.157
		c-0.562,4.644-3.076,7.353-6.251,9.488c-12.832,8.628-29.764,0.354-31.046-15.215c-0.243-2.951-0.146-6.022,0.389-8.928
		c1.929-10.481,9.003-16.492,18.848-16.348c10.146,0.148,16.741,5.918,18.731,16.467
		C359.107,543.397,359.332,546.023,358.449,549.153z M347.65,542.182c0.014-6.014-2.65-9.275-7.331-9.364
		c-4.842-0.093-7.629,3.044-8.009,9.364C337.329,542.182,342.339,542.182,347.65,542.182z"/>
	<path fill="#FFFFFF" d="M216.63,549.136c-8.914,0-17.521,0-26.346,0c-0.612,4.865,1.218,8.105,5.32,9.734
		c3.56,1.414,6.694,0.671,9.115-2.783c3.473-4.955,7.301,0.111,11.154-0.86c-2.31,9.821-11.507,14.445-22.746,12.116
		c-10.594-2.195-16.402-12.706-14.32-25.916c1.863-11.823,10.441-18.304,22.272-16.825
		C211.66,525.923,218.002,535.607,216.63,549.136z M190.205,542.292c5.388,0,10.433,0,15.475,0c0.048-5.927-2.529-9.226-7.173-9.453
		C193.666,532.602,190.753,535.731,190.205,542.292z"/>
	<path fill="#FFFFFF" d="M405.654,566.63c-3.943,0-7.189,0-11.086,0c0-8.176-0.018-16.103,0.006-24.029
		c0.02-6.569-1.675-9.346-6.022-9.735c-4.967-0.444-8.515,2.68-9.113,8.953c-0.518,5.437-0.258,10.949-0.319,16.429
		c-0.029,2.642-0.005,5.285-0.005,8c-3.609,1.123-6.89,0.519-10.639,0.551c0-13.653,0-27.165,0-40.955
		c2.75-1.203,5.719-0.323,8.44-0.533c1.804,1.314,0.562,3.289,1.626,5.084c4.191-3.871,8.735-6.502,14.639-5.953
		c7.4,0.688,12.043,4.471,12.364,11.803C405.98,546.179,405.654,556.147,405.654,566.63z"/>
	<path fill="#FFFFFF" d="M474.686,525.523c3.859,0,7.115,0,11.088,0c0,6.998,0,13.761,0,20.523c0,1.833-0.057,3.667,0.01,5.498
		c0.191,5.155,2.316,7.794,6.353,7.98c4.14,0.191,7.843-3.023,8.573-7.471c0.98-5.97,0.187-11.973,0.266-17.959
		c0.131-10.014,0.036-10.015,10.508-8.299c0.866,4.346,0.846,36.364-0.071,40.887c-2.722,0-5.502,0-8.416,0
		c-1.53-1.058-0.164-3.131-1.437-4.701c-3.196,2.588-6.473,5.001-10.728,5.697c-8.566,1.4-15.632-3.488-16.04-12.115
		C474.331,545.765,474.686,535.93,474.686,525.523z"/>
	<path fill="#FFFFFF" d="M99.155,422.684c9.144,0.016,16.496,7.287,16.624,16.442c0.128,9.15-7.609,16.966-16.766,16.938
		c-9.073-0.028-16.881-8.014-16.692-17.072C82.51,429.963,90.04,422.668,99.155,422.684z"/>
	<path fill="#FFFFFF" d="M279.012,599.34c5.085-1.371,8.292-0.17,10.765,4.559c3.594,6.871,8.026,13.303,13.111,19.775
		c0-8.129,0-16.259,0-24.552c2.831,0,4.938,0,7.427,0c0,13.252,0,26.285,0,39.334c-5.172,1.744-8.491,0.438-11.089-4.4
		c-3.661-6.818-8.028-13.256-13.027-19.644c0,8.015,0,16.031,0,23.915c-2.605,1.114-4.704,0.754-7.186,0.439
		C279.012,625.705,279.012,612.668,279.012,599.34z"/>
	<path fill="#FFFFFF" d="M428.576,524.879c2.682,0.297,4.772,0.529,6.966,0.772c0.654,2.789,0.543,5.35,0.105,8.235
		c-2.304,0.13-4.389,0.247-6.747,0.38c-0.725,7.388-0.512,14.52-0.035,21.594c0.314,4.653,4.275,1.968,6.635,2.354
		c1.901,8.595,0.327,10.404-8.32,9.657c-6.496-0.561-9.426-3.651-9.527-10.419c-0.111-7.481-0.025-14.964-0.025-22.059
		c-1.254-2.155-3.468-0.568-4.826-2.112c0-2.287,0-4.744,0-7.052c1.19-1.542,3.058-0.445,4.747-2.025
		c-2.362-8.388,4.66-9.949,11.027-13.286C428.576,515.991,428.576,520.377,428.576,524.879z"/>
	<path fill="#FFFFFF" d="M393.648,636.201c-6.915,4.721-11.926,4.719-16.496-0.007c-4.973-5.143-5.654-16.421-1.345-22.267
		c3.854-5.228,9.873-5.956,18.001-1.747c0-4.466,0-8.628,0-12.692c2.907-0.792,5.134-0.845,7.936,0.031
		c0,11.187,0.022,22.439-0.023,33.69c-0.007,1.783,0.438,3.647-0.504,5.328C395.592,639.475,395.592,639.475,393.648,636.201z
		 M380.944,624.827c0.033,0.467-0.074,1.845,0.263,3.105c0.824,3.077,2.42,5.68,6.019,5.696c3.74,0.016,5.685-2.382,6.411-5.823
		c0.272-1.289,0.343-2.65,0.302-3.972c-0.175-5.58-2.839-8.909-6.844-8.673C383.276,615.386,380.991,618.66,380.944,624.827z"/>
	<path fill="#FFFFFF" d="M408.914,599.273c2.478-0.489,4.567-0.597,7.186,0.125c0,4.012,0,8.074,0,11.937
		c1.898,0.858,2.589-0.427,3.543-0.878c2.334-1.104,4.751-1.392,7.277-1c6.982,1.084,10.656,7.192,10.168,16.909
		c-0.374,7.433-5.189,12.961-11.594,13.342c-3.39,0.202-6.079-1.334-8.863-3.681c-1.287,4.235-4.454,3.071-7.716,2.756
		C408.914,625.714,408.914,612.679,408.914,599.273z M429.159,624.225c-0.105-1.001-0.098-2.512-0.446-3.936
		c-0.736-3.007-2.568-5.018-5.836-5.105c-3.243-0.086-5.286,1.72-6.101,4.741c-0.464,1.722-0.781,3.581-0.665,5.345
		c0.347,5.294,3.414,8.715,7.214,8.388C427.053,633.337,429.203,630.038,429.159,624.225z"/>
	<path fill="#FFFFFF" d="M466.608,535.675c-8.031-2.668-10.738-0.84-11.965,7.041c-1.212,7.785,0.219,15.627-0.729,23.565
		c-3.289,1.171-6.58,0.408-9.77,0.561c-1.338-3.896-1.524-36.277-0.24-41.357c2.729,0,5.515,0,8.285,0
		c1.562,0.985,0.243,2.857,1.557,4.371c4.253-5.773,9.559-7.069,16.203-3.377C468.854,529.493,467.794,532.408,466.608,535.675z"/>
	<path fill="#FFFFFF" d="M467.737,638.754c-3.137,0.227-6.297,1.562-8.48-2.084c-3.316,2.193-6.784,3.588-10.816,2.861
		c-4.344-0.783-6.871-3.537-7.341-7.694c-0.458-4.046,1.652-7.158,5.47-8.573c2.939-1.089,6.096-1.592,9.159-2.339
		c1.436-0.351,3.176-0.407,3.096-2.497c-0.076-1.991-1.434-2.899-3.25-3.176c-1.852-0.283-3.983-0.445-5.152,1.096
		c-2.474,3.261-5.116,1.807-8.24,0.965c0.947-4.216,3.367-6.58,7.214-7.525c2.77-0.68,5.595-0.681,8.427-0.327
		c6.412,0.803,8.631,3.258,8.914,9.738C467.023,625.633,466.048,632.123,467.737,638.754z M458.44,625.264
		c-2.229,0.571-4.457,1.058-6.631,1.723c-2.17,0.663-3.47,2.111-2.725,4.487c0.7,2.233,2.526,2.937,4.727,2.678
		C457.742,633.69,459.182,631.015,458.44,625.264z"/>
	<path fill="#FFFFFF" d="M471.617,610.333c5.473-1.621,8.295,0.137,9.47,5.537c0.975,4.481,2.856,8.765,4.803,14.519
		c1.864-5.628,3.324-10.045,4.791-14.461c2.19-6.592,2.192-6.592,9.996-5.528c-4.415,11.753-8.723,23.419-13.201,35.02
		c-1.321,3.422-4.307,4.892-7.835,5.388c-5.361,0.754-6.291-0.008-6.505-5.479c0.678-1.135,1.771-0.565,2.706-0.659
		c4.602-0.465,6.682-3.587,5.081-7.983c-2.616-7.184-5.43-14.296-8.08-21.469C472.281,613.693,471.241,612.25,471.617,610.333z"/>
	<path fill="#FFFFFF" d="M346.997,624.61c-0.021,8.822-6.332,15.184-15.001,15.122c-8.98-0.064-15.331-6.629-15.12-15.63
		c0.204-8.701,6.74-14.983,15.445-14.844C341.18,609.4,347.018,615.507,346.997,624.61z M339.146,624.474
		c0.036-5.288-3.017-9.146-7.157-9.046c-3.971,0.096-6.896,3.793-6.951,8.784c-0.059,5.355,2.794,9.191,6.927,9.314
		C336.1,633.649,339.109,629.857,339.146,624.474z"/>
	<path fill="#FFFFFF" d="M529.628,626.797c-6.224,0-12.177,0-18.335,0c-0.261,3.366,1.079,5.4,3.745,6.551
		c2.454,1.059,4.667,0.413,6.184-1.727c2.626-3.703,5.292-0.052,8.056-0.568c-2.834,7.624-9.631,10.566-17.597,7.925
		c-6.855-2.273-10.37-10.974-7.994-19.787c1.997-7.405,8.376-11.181,16.189-9.584C526.877,611.039,530.9,617.777,529.628,626.797z
		 M522.504,621.617c-0.411-3.942-2.032-6.404-5.799-6.391c-3.825,0.013-5.194,2.663-5.634,6.391
		C514.882,621.617,518.424,621.617,522.504,621.617z"/>
	<path fill="#FFFFFF" d="M558.733,610.022c2.793,0.148,5.869-1.569,6.898,2.892c1.552-0.967,2.856-1.956,4.301-2.648
		c6.822-3.268,13.662,0.304,14.119,7.739c0.416,6.767,0.088,13.579,0.088,20.43c-2.362,1.039-4.601,0.689-7.47,0.208
		c0-5.434,0.007-10.877-0.003-16.32c-0.006-3.496-0.208-7.181-4.909-7.068c-4.354,0.105-5.843,3.282-5.881,7.221
		c-0.05,5.3-0.012,10.601-0.012,15.781c-2.459,1.281-4.58,0.733-7.132,0.593C558.733,629.432,558.733,620.052,558.733,610.022z"/>
	<path fill="#FFFFFF" d="M201.045,442.519c-6.363-0.012-11.416-5.089-11.328-11.381c0.086-6.077,5.036-11.084,11.083-11.21
		c6.075-0.126,11.638,5.197,11.758,11.25C212.679,437.309,207.378,442.531,201.045,442.519z"/>
	<path fill="#FFFFFF" d="M536.314,638.682c0-9.443,0-18.834,0-28.518c2.799,0.175,6.037-2.162,7.517,2.768
		c2.839-4.129,6.42-4.443,10.659-2.459c-0.005,2.294-0.94,4.176-1.832,6.062c-6.793-0.801-8.589,0.694-8.821,7.53
		c-0.158,4.647-0.148,9.3-0.228,13.95c-0.002,0.136-0.176,0.268-0.523,0.765C541.135,639.271,538.903,639.208,536.314,638.682z"/>
	<path fill="#FFFFFF" d="M360.663,638.845c-3.142,0-5.246,0-7.666,0c0-9.576,0-18.933,0-28.709c2.737,0.227,5.791-1.982,7.56,2.488
		c2.971-3.618,6.482-4.282,10.53-2.111c0.257,2.384-0.98,4.18-1.692,6.108c-6.799-0.901-8.446,0.346-8.696,7.006
		C360.514,628.559,360.663,633.503,360.663,638.845z"/>
</g>
</svg>
