<?xml version="1.0" encoding="utf-8"?>
<!-- Generator: Adobe Illustrator 17.0.0, SVG Export Plug-In . SVG Version: 6.00 Build 0)  -->
<!DOCTYPE svg PUBLIC "-//W3C//DTD SVG 1.1//EN" "http://www.w3.org/Graphics/SVG/1.1/DTD/svg11.dtd">
<svg version="1.1" id="Layer_1" xmlns="http://www.w3.org/2000/svg" xmlns:xlink="http://www.w3.org/1999/xlink" x="0px" y="0px"
	 width="453.543px" height="175.748px" viewBox="0 0 453.543 175.748" enable-background="new 0 0 453.543 175.748"
	 xml:space="preserve">
<rect x="0.25" y="0.25" fill="#A7A9AC" width="27.846" height="14.5"/>
<rect x="28.096" y="0.25" fill="#79A1C3" width="18.776" height="14.5"/>
<rect x="46.872" y="0.25" fill="#77BEC6" width="218.451" height="14.5"/>
<rect x="265.323" y="0.25" fill="#F9E28D" width="135.212" height="14.5"/>
<rect x="400.535" y="0.25" fill="#5D798F" width="52.508" height="14.5"/>
<path fill="#E6E7E8" d="M0.25,154.418h27.846v-46.6H0.25V154.418z M0.25,61.35h27.846v-46.6H0.25V61.35z"/>
<path fill="#D2E0EB" d="M28.096,107.818h18.776v46.6H28.096V107.818z M28.096,14.75h18.776v46.6H28.096V14.75z"/>
<path fill="#D8EDEF" d="M117.104,134.718h82.455v19.7h-82.455V134.718z M199.559,107.818h65.764v46.6h-65.764V107.818z
	 M117.104,107.818h82.455v26.9h-82.455V107.818z M46.872,107.818h70.232v46.6H46.872V107.818z M199.559,34.45h65.764v26.9h-65.764
	V34.45z M117.104,34.45h82.455v26.9h-82.455V34.45z M199.559,14.75h65.764v19.7h-65.764V14.75z M117.104,14.75h82.455v19.7h-82.455
	V14.75z M46.872,14.75h70.232v46.6H46.872V14.75z"/>
<path fill="#FDF7DE" d="M325.984,107.818h74.551v46.6h-74.551V107.818z M265.323,107.818h60.661v46.6h-60.661V107.818z
	 M265.323,34.45h60.661v26.9h-60.661V34.45z M325.984,14.75h74.551v46.6h-74.551V14.75z M265.323,14.75h60.661v19.7h-60.661V14.75z"
	/>
<path fill="#D1D8DF" d="M400.535,154.418h52.508v-46.6h-52.508V154.418z M400.535,61.35h52.508v-46.6h-52.508V61.35z"/>
<path fill="#D1D3D4" d="M0.25,166.918h27.846v-12.5H0.25V166.918z M0.25,107.818h27.846V61.35H0.25V107.818z"/>
<path fill="#A6C1D7" d="M28.096,154.418h18.776v12.5H28.096V154.418z M28.096,61.35h18.776v46.468H28.096V61.35z"/>
<path fill="#B1DADF" d="M46.872,81.05h70.232v26.768H46.872V81.05z M199.559,61.35h65.764v46.468h-65.764V61.35z M117.104,61.35
	h82.455v46.468h-82.455V61.35z M46.872,61.35h70.232v19.7H46.872V61.35z"/>
<path fill="#FBEEBE" d="M325.984,81.05h74.551v26.768h-74.551V81.05z M265.323,81.05h60.661v26.768h-60.661V81.05z M325.984,61.35
	h74.551v19.7h-74.551V61.35z M265.323,61.35h60.661v19.7h-60.661V61.35z"/>
<rect x="400.535" y="61.35" fill="#A2B2BF" width="52.508" height="46.468"/>
<rect x="46.872" y="154.418" fill="#ED553B" width="406.171" height="12.5"/>
<g>
	<defs>
		<rect id="SVGID_1_" width="453.543" height="175.748"/>
	</defs>
	<clipPath id="SVGID_2_">
		<use xlink:href="#SVGID_1_"  overflow="visible"/>
	</clipPath>
	
		<line clip-path="url(#SVGID_2_)" fill="none" stroke="#FFFFFF" stroke-width="0.5" stroke-miterlimit="10" x1="28.097" y1="14.5" x2="28.097" y2="0.5"/>
	
		<line clip-path="url(#SVGID_2_)" fill="none" stroke="#FFFFFF" stroke-width="0.5" stroke-miterlimit="10" x1="46.872" y1="14.5" x2="46.872" y2="0.5"/>
	
		<line clip-path="url(#SVGID_2_)" fill="none" stroke="#FFFFFF" stroke-width="0.5" stroke-miterlimit="10" x1="265.323" y1="14.5" x2="265.323" y2="0.5"/>
	
		<line clip-path="url(#SVGID_2_)" fill="none" stroke="#FFFFFF" stroke-width="0.5" stroke-miterlimit="10" x1="400.535" y1="14.5" x2="400.535" y2="0.5"/>
	
		<line clip-path="url(#SVGID_2_)" fill="none" stroke="#FFFFFF" stroke-width="0.5" stroke-miterlimit="10" x1="0.5" y1="14.75" x2="28.096" y2="14.75"/>
</g>
<line fill="none" stroke="#FFFFFF" stroke-width="0.5" stroke-miterlimit="10" x1="28.097" y1="14.75" x2="46.872" y2="14.75"/>
<line fill="none" stroke="#FFFFFF" stroke-width="0.5" stroke-miterlimit="10" x1="28.097" y1="34.45" x2="28.097" y2="15"/>
<line fill="none" stroke="#FFFFFF" stroke-width="0.5" stroke-miterlimit="10" x1="46.872" y1="14.75" x2="117.104" y2="14.75"/>
<line fill="none" stroke="#FFFFFF" stroke-width="0.5" stroke-miterlimit="10" x1="46.872" y1="34.45" x2="46.872" y2="15"/>
<line fill="none" stroke="#FFFFFF" stroke-width="0.5" stroke-miterlimit="10" x1="28.097" y1="61.1" x2="28.097" y2="34.45"/>
<line fill="none" stroke="#FFFFFF" stroke-width="0.5" stroke-miterlimit="10" x1="46.872" y1="61.1" x2="46.872" y2="34.45"/>
<line fill="none" stroke="#FFFFFF" stroke-width="0.5" stroke-miterlimit="10" x1="117.104" y1="14.75" x2="199.559" y2="14.75"/>
<line fill="none" stroke="#FFFFFF" stroke-width="0.5" stroke-miterlimit="10" x1="117.104" y1="34.2" x2="117.104" y2="15"/>
<line fill="none" stroke="#FFFFFF" stroke-width="0.5" stroke-miterlimit="10" x1="199.559" y1="14.75" x2="265.323" y2="14.75"/>
<line fill="none" stroke="#FFFFFF" stroke-width="0.5" stroke-miterlimit="10" x1="199.559" y1="34.2" x2="199.559" y2="15"/>
<line fill="none" stroke="#FFFFFF" stroke-width="0.5" stroke-miterlimit="10" x1="265.323" y1="14.75" x2="325.984" y2="14.75"/>
<line fill="none" stroke="#FFFFFF" stroke-width="0.5" stroke-miterlimit="10" x1="265.323" y1="34.2" x2="265.323" y2="15"/>
<line fill="none" stroke="#FFFFFF" stroke-width="0.5" stroke-miterlimit="10" x1="199.559" y1="34.45" x2="265.323" y2="34.45"/>
<line fill="none" stroke="#FFFFFF" stroke-width="0.5" stroke-miterlimit="10" x1="265.323" y1="34.45" x2="326.234" y2="34.45"/>
<line fill="none" stroke="#FFFFFF" stroke-width="0.5" stroke-miterlimit="10" x1="265.323" y1="61.1" x2="265.323" y2="34.7"/>
<line fill="none" stroke="#FFFFFF" stroke-width="0.5" stroke-miterlimit="10" x1="325.984" y1="14.75" x2="400.535" y2="14.75"/>
<line fill="none" stroke="#FFFFFF" stroke-width="0.5" stroke-miterlimit="10" x1="325.984" y1="34.2" x2="325.984" y2="15"/>
<line fill="none" stroke="#FFFFFF" stroke-width="0.5" stroke-miterlimit="10" x1="400.535" y1="14.75" x2="452.793" y2="14.75"/>
<line fill="none" stroke="#FFFFFF" stroke-width="0.5" stroke-miterlimit="10" x1="400.535" y1="34.45" x2="400.535" y2="15"/>
<line fill="none" stroke="#FFFFFF" stroke-width="0.5" stroke-miterlimit="10" x1="400.535" y1="61.1" x2="400.535" y2="34.45"/>
<line fill="none" stroke="#FFFFFF" stroke-width="0.5" stroke-miterlimit="10" x1="116.854" y1="34.45" x2="199.559" y2="34.45"/>
<line fill="none" stroke="#FFFFFF" stroke-width="0.5" stroke-miterlimit="10" x1="117.104" y1="61.1" x2="117.104" y2="34.7"/>
<line fill="none" stroke="#FFFFFF" stroke-width="0.5" stroke-miterlimit="10" x1="199.559" y1="61.1" x2="199.559" y2="34.7"/>
<line fill="none" stroke="#FFFFFF" stroke-width="0.5" stroke-miterlimit="10" x1="325.984" y1="61.1" x2="325.984" y2="34.7"/>
<g>
	<defs>
		<rect id="SVGID_3_" width="453.543" height="175.748"/>
	</defs>
	<clipPath id="SVGID_4_">
		<use xlink:href="#SVGID_3_"  overflow="visible"/>
	</clipPath>
	
		<line clip-path="url(#SVGID_4_)" fill="none" stroke="#FFFFFF" stroke-width="0.5" stroke-miterlimit="10" x1="0.5" y1="61.35" x2="28.096" y2="61.35"/>
</g>
<line fill="none" stroke="#FFFFFF" stroke-width="0.5" stroke-miterlimit="10" x1="28.097" y1="61.35" x2="46.872" y2="61.35"/>
<line fill="none" stroke="#FFFFFF" stroke-width="0.5" stroke-miterlimit="10" x1="28.097" y1="81.05" x2="28.097" y2="61.6"/>
<line fill="none" stroke="#FFFFFF" stroke-width="0.5" stroke-miterlimit="10" x1="28.097" y1="107.568" x2="28.097" y2="81.05"/>
<line fill="none" stroke="#FFFFFF" stroke-width="0.5" stroke-miterlimit="10" x1="46.872" y1="61.35" x2="117.104" y2="61.35"/>
<line fill="none" stroke="#FFFFFF" stroke-width="0.5" stroke-miterlimit="10" x1="46.872" y1="80.8" x2="46.872" y2="61.6"/>
<line fill="none" stroke="#FFFFFF" stroke-width="0.5" stroke-miterlimit="10" x1="117.104" y1="61.35" x2="199.559" y2="61.35"/>
<line fill="none" stroke="#FFFFFF" stroke-width="0.5" stroke-miterlimit="10" x1="117.104" y1="80.8" x2="117.104" y2="61.6"/>
<line fill="none" stroke="#FFFFFF" stroke-width="0.5" stroke-miterlimit="10" x1="199.559" y1="61.35" x2="265.323" y2="61.35"/>
<line fill="none" stroke="#FFFFFF" stroke-width="0.5" stroke-miterlimit="10" x1="199.559" y1="81.05" x2="199.559" y2="61.6"/>
<line fill="none" stroke="#FFFFFF" stroke-width="0.5" stroke-miterlimit="10" x1="265.323" y1="61.35" x2="325.984" y2="61.35"/>
<line fill="none" stroke="#FFFFFF" stroke-width="0.5" stroke-miterlimit="10" x1="265.323" y1="80.8" x2="265.323" y2="61.6"/>
<line fill="none" stroke="#FFFFFF" stroke-width="0.5" stroke-miterlimit="10" x1="325.984" y1="61.35" x2="400.535" y2="61.35"/>
<line fill="none" stroke="#FFFFFF" stroke-width="0.5" stroke-miterlimit="10" x1="325.984" y1="80.8" x2="325.984" y2="61.6"/>
<line fill="none" stroke="#FFFFFF" stroke-width="0.5" stroke-miterlimit="10" x1="400.535" y1="61.35" x2="452.793" y2="61.35"/>
<line fill="none" stroke="#FFFFFF" stroke-width="0.5" stroke-miterlimit="10" x1="400.535" y1="80.8" x2="400.535" y2="61.6"/>
<line fill="none" stroke="#FFFFFF" stroke-width="0.5" stroke-miterlimit="10" x1="199.559" y1="107.568" x2="199.559" y2="81.05"/>
<line fill="none" stroke="#FFFFFF" stroke-width="0.5" stroke-miterlimit="10" x1="265.073" y1="81.05" x2="325.984" y2="81.05"/>
<line fill="none" stroke="#FFFFFF" stroke-width="0.5" stroke-miterlimit="10" x1="265.323" y1="107.568" x2="265.323" y2="81.3"/>
<line fill="none" stroke="#FFFFFF" stroke-width="0.5" stroke-miterlimit="10" x1="325.984" y1="81.05" x2="400.785" y2="81.05"/>
<line fill="none" stroke="#FFFFFF" stroke-width="0.5" stroke-miterlimit="10" x1="325.984" y1="107.568" x2="325.984" y2="81.3"/>
<line fill="none" stroke="#FFFFFF" stroke-width="0.5" stroke-miterlimit="10" x1="400.535" y1="107.568" x2="400.535" y2="81.3"/>
<line fill="none" stroke="#FFFFFF" stroke-width="0.5" stroke-miterlimit="10" x1="46.622" y1="81.05" x2="117.354" y2="81.05"/>
<line fill="none" stroke="#FFFFFF" stroke-width="0.5" stroke-miterlimit="10" x1="46.872" y1="107.568" x2="46.872" y2="81.3"/>
<line fill="none" stroke="#FFFFFF" stroke-width="0.5" stroke-miterlimit="10" x1="117.104" y1="107.568" x2="117.104" y2="81.3"/>
<g>
	<defs>
		<rect id="SVGID_5_" width="453.543" height="175.748"/>
	</defs>
	<clipPath id="SVGID_6_">
		<use xlink:href="#SVGID_5_"  overflow="visible"/>
	</clipPath>
	
		<line clip-path="url(#SVGID_6_)" fill="none" stroke="#FFFFFF" stroke-width="0.5" stroke-miterlimit="10" x1="0.5" y1="107.818" x2="28.096" y2="107.818"/>
</g>
<line fill="none" stroke="#FFFFFF" stroke-width="0.5" stroke-miterlimit="10" x1="28.097" y1="107.818" x2="46.872" y2="107.818"/>
<line fill="none" stroke="#FFFFFF" stroke-width="0.5" stroke-miterlimit="10" x1="28.097" y1="134.718" x2="28.097" y2="108.068"/>
<line fill="none" stroke="#FFFFFF" stroke-width="0.5" stroke-miterlimit="10" x1="28.097" y1="154.168" x2="28.097" y2="134.718"/>
<line fill="none" stroke="#FFFFFF" stroke-width="0.5" stroke-miterlimit="10" x1="46.872" y1="107.818" x2="117.104" y2="107.818"/>
<line fill="none" stroke="#FFFFFF" stroke-width="0.5" stroke-miterlimit="10" x1="46.872" y1="134.718" x2="46.872" y2="108.068"/>
<line fill="none" stroke="#FFFFFF" stroke-width="0.5" stroke-miterlimit="10" x1="117.104" y1="107.818" x2="199.559" y2="107.818"/>
<line fill="none" stroke="#FFFFFF" stroke-width="0.5" stroke-miterlimit="10" x1="117.104" y1="134.468" x2="117.104" y2="108.068"/>
<line fill="none" stroke="#FFFFFF" stroke-width="0.5" stroke-miterlimit="10" x1="199.559" y1="107.818" x2="265.323" y2="107.818"/>
<line fill="none" stroke="#FFFFFF" stroke-width="0.5" stroke-miterlimit="10" x1="199.559" y1="134.468" x2="199.559" y2="108.068"/>
<line fill="none" stroke="#FFFFFF" stroke-width="0.5" stroke-miterlimit="10" x1="265.323" y1="107.818" x2="325.984" y2="107.818"/>
<line fill="none" stroke="#FFFFFF" stroke-width="0.5" stroke-miterlimit="10" x1="265.323" y1="134.718" x2="265.323" y2="108.068"/>
<line fill="none" stroke="#FFFFFF" stroke-width="0.5" stroke-miterlimit="10" x1="325.984" y1="107.818" x2="400.535" y2="107.818"/>
<line fill="none" stroke="#FFFFFF" stroke-width="0.5" stroke-miterlimit="10" x1="325.984" y1="134.718" x2="325.984" y2="108.068"/>
<line fill="none" stroke="#FFFFFF" stroke-width="0.5" stroke-miterlimit="10" x1="46.872" y1="154.168" x2="46.872" y2="134.718"/>
<line fill="none" stroke="#FFFFFF" stroke-width="0.5" stroke-miterlimit="10" x1="265.323" y1="154.168" x2="265.323" y2="134.718"/>
<line fill="none" stroke="#FFFFFF" stroke-width="0.5" stroke-miterlimit="10" x1="325.984" y1="154.168" x2="325.984" y2="134.718"/>
<line fill="none" stroke="#FFFFFF" stroke-width="0.5" stroke-miterlimit="10" x1="400.535" y1="107.818" x2="452.793" y2="107.818"/>
<line fill="none" stroke="#FFFFFF" stroke-width="0.5" stroke-miterlimit="10" x1="400.535" y1="134.718" x2="400.535" y2="108.068"/>
<line fill="none" stroke="#FFFFFF" stroke-width="0.5" stroke-miterlimit="10" x1="400.535" y1="154.168" x2="400.535" y2="134.718"/>
<line fill="none" stroke="#FFFFFF" stroke-width="0.5" stroke-miterlimit="10" x1="116.854" y1="134.718" x2="199.809" y2="134.718"/>
<line fill="none" stroke="#FFFFFF" stroke-width="0.5" stroke-miterlimit="10" x1="117.104" y1="154.168" x2="117.104" y2="134.968"/>
<line fill="none" stroke="#FFFFFF" stroke-width="0.5" stroke-miterlimit="10" x1="199.559" y1="154.168" x2="199.559" y2="134.968"/>
<g>
	<defs>
		<rect id="SVGID_7_" width="453.543" height="175.748"/>
	</defs>
	<clipPath id="SVGID_8_">
		<use xlink:href="#SVGID_7_"  overflow="visible"/>
	</clipPath>
	
		<line clip-path="url(#SVGID_8_)" fill="none" stroke="#FFFFFF" stroke-width="0.5" stroke-miterlimit="10" x1="0.5" y1="154.418" x2="28.096" y2="154.418"/>
</g>
<line fill="none" stroke="#FFFFFF" stroke-width="0.5" stroke-miterlimit="10" x1="28.097" y1="154.418" x2="46.872" y2="154.418"/>
<line fill="none" stroke="#FFFFFF" stroke-width="0.5" stroke-miterlimit="10" x1="28.097" y1="166.668" x2="28.097" y2="154.668"/>
<line fill="none" stroke="#FFFFFF" stroke-width="0.5" stroke-miterlimit="10" x1="46.872" y1="154.418" x2="117.104" y2="154.418"/>
<line fill="none" stroke="#FFFFFF" stroke-width="0.5" stroke-miterlimit="10" x1="46.872" y1="166.668" x2="46.872" y2="154.668"/>
<line fill="none" stroke="#FFFFFF" stroke-width="0.5" stroke-miterlimit="10" x1="117.104" y1="154.418" x2="199.559" y2="154.418"/>
<line fill="none" stroke="#FFFFFF" stroke-width="0.5" stroke-miterlimit="10" x1="199.559" y1="154.418" x2="265.323" y2="154.418"/>
<line fill="none" stroke="#FFFFFF" stroke-width="0.5" stroke-miterlimit="10" x1="265.323" y1="154.418" x2="325.984" y2="154.418"/>
<line fill="none" stroke="#FFFFFF" stroke-width="0.5" stroke-miterlimit="10" x1="325.984" y1="154.418" x2="400.535" y2="154.418"/>
<line fill="none" stroke="#FFFFFF" stroke-width="0.5" stroke-miterlimit="10" x1="400.535" y1="154.418" x2="452.793" y2="154.418"/>
<g>
	<defs>
		<rect id="SVGID_9_" width="453.543" height="175.748"/>
	</defs>
	<clipPath id="SVGID_10_">
		<use xlink:href="#SVGID_9_"  overflow="visible"/>
	</clipPath>
	
		<line clip-path="url(#SVGID_10_)" fill="none" stroke="#E9EDF2" stroke-width="0.5" stroke-miterlimit="10" x1="0" y1="0.25" x2="28.096" y2="0.25"/>
	
		<line clip-path="url(#SVGID_10_)" fill="none" stroke="#E9EDF2" stroke-width="0.5" stroke-miterlimit="10" x1="0.25" y1="14.75" x2="0.25" y2="0.5"/>
	
		<line clip-path="url(#SVGID_10_)" fill="none" stroke="#E9EDF2" stroke-width="0.5" stroke-miterlimit="10" x1="28.097" y1="0.25" x2="46.872" y2="0.25"/>
	
		<line clip-path="url(#SVGID_10_)" fill="none" stroke="#E9EDF2" stroke-width="0.5" stroke-miterlimit="10" x1="46.872" y1="0.25" x2="117.104" y2="0.25"/>
	
		<line clip-path="url(#SVGID_10_)" fill="none" stroke="#E9EDF2" stroke-width="0.5" stroke-miterlimit="10" x1="117.104" y1="0.25" x2="199.559" y2="0.25"/>
	
		<line clip-path="url(#SVGID_10_)" fill="none" stroke="#E9EDF2" stroke-width="0.5" stroke-miterlimit="10" x1="199.559" y1="0.25" x2="265.323" y2="0.25"/>
	
		<line clip-path="url(#SVGID_10_)" fill="none" stroke="#E9EDF2" stroke-width="0.5" stroke-miterlimit="10" x1="265.323" y1="0.25" x2="325.984" y2="0.25"/>
	
		<line clip-path="url(#SVGID_10_)" fill="none" stroke="#E9EDF2" stroke-width="0.5" stroke-miterlimit="10" x1="325.984" y1="0.25" x2="400.535" y2="0.25"/>
	
		<line clip-path="url(#SVGID_10_)" fill="none" stroke="#E9EDF2" stroke-width="0.5" stroke-miterlimit="10" x1="400.535" y1="0.25" x2="453.293" y2="0.25"/>
	
		<line clip-path="url(#SVGID_10_)" fill="none" stroke="#E9EDF2" stroke-width="0.5" stroke-miterlimit="10" x1="453.043" y1="14.75" x2="453.043" y2="0.5"/>
	
		<line clip-path="url(#SVGID_10_)" fill="none" stroke="#E9EDF2" stroke-width="0.5" stroke-miterlimit="10" x1="0.25" y1="34.45" x2="0.25" y2="14.75"/>
	
		<line clip-path="url(#SVGID_10_)" fill="none" stroke="#E9EDF2" stroke-width="0.5" stroke-miterlimit="10" x1="0.25" y1="61.35" x2="0.25" y2="34.45"/>
	
		<line clip-path="url(#SVGID_10_)" fill="none" stroke="#E9EDF2" stroke-width="0.5" stroke-miterlimit="10" x1="453.043" y1="34.45" x2="453.043" y2="14.75"/>
	
		<line clip-path="url(#SVGID_10_)" fill="none" stroke="#E9EDF2" stroke-width="0.5" stroke-miterlimit="10" x1="453.043" y1="61.35" x2="453.043" y2="34.45"/>
	
		<line clip-path="url(#SVGID_10_)" fill="none" stroke="#E9EDF2" stroke-width="0.5" stroke-miterlimit="10" x1="0.25" y1="81.05" x2="0.25" y2="61.35"/>
	
		<line clip-path="url(#SVGID_10_)" fill="none" stroke="#E9EDF2" stroke-width="0.5" stroke-miterlimit="10" x1="0.25" y1="107.818" x2="0.25" y2="81.05"/>
	
		<line clip-path="url(#SVGID_10_)" fill="none" stroke="#E9EDF2" stroke-width="0.5" stroke-miterlimit="10" x1="453.043" y1="81.05" x2="453.043" y2="61.35"/>
	
		<line clip-path="url(#SVGID_10_)" fill="none" stroke="#E9EDF2" stroke-width="0.5" stroke-miterlimit="10" x1="453.043" y1="107.818" x2="453.043" y2="81.05"/>
	
		<line clip-path="url(#SVGID_10_)" fill="none" stroke="#E9EDF2" stroke-width="0.5" stroke-miterlimit="10" x1="0.25" y1="134.718" x2="0.25" y2="107.818"/>
	
		<line clip-path="url(#SVGID_10_)" fill="none" stroke="#E9EDF2" stroke-width="0.5" stroke-miterlimit="10" x1="0.25" y1="154.418" x2="0.25" y2="134.718"/>
	
		<line clip-path="url(#SVGID_10_)" fill="none" stroke="#E9EDF2" stroke-width="0.5" stroke-miterlimit="10" x1="453.043" y1="134.718" x2="453.043" y2="107.818"/>
	
		<line clip-path="url(#SVGID_10_)" fill="none" stroke="#E9EDF2" stroke-width="0.5" stroke-miterlimit="10" x1="453.043" y1="154.418" x2="453.043" y2="134.718"/>
	
		<line clip-path="url(#SVGID_10_)" fill="none" stroke="#E9EDF2" stroke-width="0.5" stroke-miterlimit="10" x1="0.25" y1="166.668" x2="0.25" y2="154.418"/>
	
		<line clip-path="url(#SVGID_10_)" fill="none" stroke="#E9EDF2" stroke-width="0.5" stroke-miterlimit="10" x1="453.043" y1="166.668" x2="453.043" y2="154.418"/>
	
		<line clip-path="url(#SVGID_10_)" fill="none" stroke="#E9EDF2" stroke-width="0.5" stroke-miterlimit="10" x1="0" y1="166.918" x2="28.096" y2="166.918"/>
</g>
<line fill="none" stroke="#E9EDF2" stroke-width="0.5" stroke-miterlimit="10" x1="28.097" y1="166.918" x2="46.872" y2="166.918"/>
<line fill="none" stroke="#E9EDF2" stroke-width="0.5" stroke-miterlimit="10" x1="46.872" y1="166.918" x2="117.104" y2="166.918"/>
<line fill="none" stroke="#E9EDF2" stroke-width="0.5" stroke-miterlimit="10" x1="117.104" y1="166.918" x2="199.559" y2="166.918"/>
<line fill="none" stroke="#E9EDF2" stroke-width="0.5" stroke-miterlimit="10" x1="199.559" y1="166.918" x2="265.323" y2="166.918"/>
<line fill="none" stroke="#E9EDF2" stroke-width="0.5" stroke-miterlimit="10" x1="265.323" y1="166.918" x2="325.984" y2="166.918"/>
<line fill="none" stroke="#E9EDF2" stroke-width="0.5" stroke-miterlimit="10" x1="325.984" y1="166.918" x2="400.535" y2="166.918"/>
<g>
	<defs>
		<rect id="SVGID_11_" width="453.543" height="175.748"/>
	</defs>
	<clipPath id="SVGID_12_">
		<use xlink:href="#SVGID_11_"  overflow="visible"/>
	</clipPath>
	
		<line clip-path="url(#SVGID_12_)" fill="none" stroke="#E9EDF2" stroke-width="0.5" stroke-miterlimit="10" x1="400.535" y1="166.918" x2="453.293" y2="166.918"/>
</g>
<text transform="matrix(1 0 0 1 5.1675 8.956)" font-family="'Arial-BoldMT'" font-size="4">Semester</text>
<text transform="matrix(1 0 0 1 32.1514 8.956)" font-family="'Arial-BoldMT'" font-size="4">ECTS</text>
<text transform="matrix(1 0 0 1 98.9204 9.684)" font-family="'Arial-BoldMT'" font-size="6">Major: Paleobiology-Paleoenvironments</text>
<text transform="matrix(1 0 0 1 284.248 9.684)" font-family="'Arial-BoldMT'" font-size="6">Minor: Climate and Earth Systems</text>
<text transform="matrix(1 0 0 1 421.9277 10.0483)" font-family="'Arial-BoldMT'" font-size="7">SC</text>
<text transform="matrix(1 0 0 1 12.5049 40.2343)" font-family="'ArialMT'" font-size="6">1</text>
<text transform="matrix(1 0 0 1 34.147 40.2343)" font-family="'ArialMT'" font-size="6">30</text>
<text transform="matrix(1 0 0 1 65.9766 36.6342)" font-family="'ArialMT'" font-size="6">Invertebrate </text>
<text transform="matrix(1 0 0 1 64.8066 43.8339)" font-family="'ArialMT'" font-size="6">Paleobiology</text>
<text transform="matrix(1 0 0 1 133.981 26.7822)" font-family="'ArialMT'" font-size="6">Micropaleontology</text>
<text transform="matrix(1 0 0 1 212.7549 26.7822)" font-family="'ArialMT'" font-size="6">Oceanography</text>
<text transform="matrix(1 0 0 1 270.9668 26.7822)" font-family="'ArialMT'" font-size="6">Literature Seminar</text>
<text transform="matrix(1 0 0 1 334.9092 33.0341)" font-family="'ArialMT'" font-size="6">Geochemical Proxies </text>
<text transform="matrix(1 0 0 1 333.5703 40.2343)" font-family="'ArialMT'" font-size="6">in Paleoenvironmental </text>
<text transform="matrix(1 0 0 1 352.0869 47.434)" font-family="'ArialMT'" font-size="6">Analysis</text>
<text transform="matrix(1 0 0 1 405.9756 36.3979)" font-family="'ArialMT'" font-size="7">Computers in </text>
<text transform="matrix(1 0 0 1 405.1914 44.7983)" font-family="'ArialMT'" font-size="7">Geosciences*</text>
<text transform="matrix(1 0 0 1 138.3218 50.0839)" font-family="'ArialMT'" font-size="6">Biostratigraphy</text>
<text transform="matrix(1 0 0 1 213.4297 42.8842)" font-family="'ArialMT'" font-size="6">Introduction to </text>
<text transform="matrix(1 0 0 1 205.9238 50.0839)" font-family="'ArialMT'" font-size="6">Paleoenvironmental </text>
<text transform="matrix(1 0 0 1 212.4277 57.2841)" font-family="'ArialMT'" font-size="6">Reconstruction</text>
<text transform="matrix(1 0 0 1 274.1377 42.8842)" font-family="'ArialMT'" font-size="6">Consolidation of </text>
<text transform="matrix(1 0 0 1 274.6475 50.0839)" font-family="'ArialMT'" font-size="6">R Programming </text>
<text transform="matrix(1 0 0 1 287.9863 57.2841)" font-family="'ArialMT'" font-size="6">Skillls</text>
<text transform="matrix(1 0 0 1 12.502 86.768)" font-family="'ArialMT'" font-size="6">2</text>
<text transform="matrix(1 0 0 1 34.144 86.768)" font-family="'ArialMT'" font-size="6">30</text>
<text transform="matrix(1 0 0 1 61.6421 73.3818)" font-family="'ArialMT'" font-size="6">Macroevolution</text>
<text transform="matrix(1 0 0 1 122.1401 83.1679)" font-family="'ArialMT'" font-size="6">Bayesian Phylogenetics for </text>
<text transform="matrix(1 0 0 1 141.1479 90.3681)" font-family="'ArialMT'" font-size="6">Paleobiology</text>
<text transform="matrix(1 0 0 1 219.5981 83.1679)" font-family="'ArialMT'" font-size="6">Analytical </text>
<text transform="matrix(1 0 0 1 215.2598 90.3681)" font-family="'ArialMT'" font-size="6">Paleobiology</text>
<text transform="matrix(1 0 0 1 272.6436 69.7822)" font-family="'ArialMT'" font-size="6">Research Project </text>
<text transform="matrix(1 0 0 1 275.1396 76.9819)" font-family="'ArialMT'" font-size="6">Implementation</text>
<text transform="matrix(1 0 0 1 334.9658 69.7822)"><tspan x="0" y="0" font-family="'ArialMT'" font-size="6">Hypothesis</tspan><tspan x="29.681" y="0" font-family="'ArialMT'" font-size="6"> </tspan><tspan x="31.246" y="0" font-family="'ArialMT'" font-size="6">T</tspan><tspan x="34.251" y="0" font-family="'ArialMT'" font-size="6">esting in </tspan></text>
<text transform="matrix(1 0 0 1 333.748 76.9819)" font-family="'ArialMT'" font-size="6">Earth System Science</text>
<text transform="matrix(1 0 0 1 405.7773 87.1323)" font-family="'ArialMT'" font-size="7">SC to choose</text>
<text transform="matrix(1 0 0 1 57.8623 93.0185)"><tspan x="0" y="0" font-family="'ArialMT'" font-size="6">Selected</tspan><tspan x="23.35" y="0" font-family="'ArialMT'" font-size="6"> </tspan><tspan x="24.915" y="0" font-family="'ArialMT'" font-size="6">T</tspan><tspan x="27.919" y="0" font-family="'ArialMT'" font-size="6">opics in </tspan></text>
<text transform="matrix(1 0 0 1 61.6421 100.2177)" font-family="'ArialMT'" font-size="6">Macroevolution</text>
<text transform="matrix(1 0 0 1 271.6426 93.0185)" font-family="'ArialMT'" font-size="6">Climate and Earth </text>
<text transform="matrix(1 0 0 1 278.4824 100.2177)" font-family="'ArialMT'" font-size="6">System Data</text>
<text transform="matrix(1 0 0 1 336.5801 89.4179)" font-family="'ArialMT'" font-size="6">Laboratory Methods </text>
<text transform="matrix(1 0 0 1 333.5801 96.6181)" font-family="'ArialMT'" font-size="6">in Paleoenvironmental </text>
<text transform="matrix(1 0 0 1 350.4277 103.8183)" font-family="'ArialMT'" font-size="6">Research</text>
<text transform="matrix(1 0 0 1 12.5142 133.3017)" font-family="'ArialMT'" font-size="6">3</text>
<text transform="matrix(1 0 0 1 34.1563 133.3017)" font-family="'ArialMT'" font-size="6">30</text>
<text transform="matrix(1 0 0 1 63.3223 133.3017)" font-family="'ArialMT'" font-size="6">Macroecology</text>
<text transform="matrix(1 0 0 1 131.1582 123.4501)" font-family="'ArialMT'" font-size="6">Geobiology of Reefs</text>
<text transform="matrix(1 0 0 1 205.4443 126.1025)"><tspan x="0" y="0" font-family="'ArialMT'" font-size="6">Microfacies</tspan><tspan x="30.34" y="0" font-family="'ArialMT'" font-size="6"> </tspan><tspan x="31.683" y="0" font-family="'ArialMT'" font-size="6">Analysis </tspan></text>
<text transform="matrix(1 0 0 1 208.438 133.3017)" font-family="'ArialMT'" font-size="6">and Diagenesis of </text>
<text transform="matrix(1 0 0 1 209.2783 140.5019)" font-family="'ArialMT'" font-size="6">Carbonate Rocks</text>
<text transform="matrix(1 0 0 1 272.6621 129.7021)" font-family="'ArialMT'" font-size="6">Research Project </text>
<text transform="matrix(1 0 0 1 286.3359 136.9023)" font-family="'ArialMT'" font-size="6">Design</text>
<text transform="matrix(1 0 0 1 330.9346 133.3017)" font-family="'ArialMT'" font-size="6">Science Communication</text>
<text transform="matrix(1 0 0 1 405.7773 133.666)" font-family="'ArialMT'" font-size="7">SC to choose</text>
<text transform="matrix(1 0 0 1 121.6504 143.1523)" font-family="'ArialMT'" font-size="6">Programming and Statistics </text>
<text transform="matrix(1 0 0 1 126.1504 150.3525)"><tspan x="0" y="0" font-family="'ArialMT'" font-size="6">in Reef System</tspan><tspan x="40.682" y="0" font-family="'ArialMT'" font-size="6"> </tspan><tspan x="42.024" y="0" font-family="'ArialMT'" font-size="6">Analysis</tspan></text>
<text transform="matrix(1 0 0 1 12.5044 162.8505)" font-family="'ArialMT'" font-size="6">4</text>
<text transform="matrix(1 0 0 1 34.1465 162.8505)" font-family="'ArialMT'" font-size="6">30</text>
<text transform="matrix(1 0 0 1 232.1162 162.8505)" font-family="'ArialMT'" font-size="6">Master thesis</text>
<g>
	<defs>
		<rect id="SVGID_13_" width="453.543" height="175.748"/>
	</defs>
	<clipPath id="SVGID_14_">
		<use xlink:href="#SVGID_13_"  overflow="visible"/>
	</clipPath>
	<g clip-path="url(#SVGID_14_)">
		<text transform="matrix(1 0 0 1 0 173.0293)" font-family="'Arial-BoldMT'" font-size="6">SC</text>
	</g>
	<g clip-path="url(#SVGID_14_)">
		<text transform="matrix(1 0 0 1 8.334 173.0293)" font-family="'ArialMT'" font-size="6">: Supplementary Courses; *Elective, but highly recommended. </text>
	</g>
</g>
</svg>
